<svg xmlns="http://www.w3.org/2000/svg" width="32" height="26" fill="none" viewBox="0 0 32 26"><path fill="#000" stroke="#00C2FF" stroke-width="2" d="M4 1H11.1431C11.9388 1 12.7019 1.31607 13.2645 1.87868L14.1213 2.73553C15.059 3.67322 16.3308 4.2 17.6569 4.2H28C29.6569 4.2 31 5.54314 31 7.2V21.6C31 23.2569 29.6569 24.6 28 24.6H4C2.34315 24.6 1 23.2569 1 21.6V4C1 2.34315 2.34315 1 4 1Z"/><path fill="#00C2FF" d="M9 16.9333C8.44772 16.9333 8.00811 16.4842 8.11976 15.9433C8.40984 14.538 9.40258 12.1333 12.8 12.1333C16 12.1333 16.4 14.9333 18.8 14.9333C20.7287 14.9333 21.4949 13.9162 21.7993 13.108C21.994 12.5912 22.4477 12.1333 23 12.1333V12.1333C23.5523 12.1333 23.9919 12.5824 23.8802 13.1233C23.5902 14.5286 22.5974 16.9333 19.2 16.9333C16 16.9333 14.8 14.1333 13.2 14.1333C11.2713 14.1333 10.5051 15.1504 10.2007 15.9586C10.006 16.4754 9.55228 16.9333 9 16.9333V16.9333Z"/><path fill="#00C2FF" d="M13.1776 21.7334C12.6225 21.7334 12.2502 21.1634 12.4733 20.6551L17.6448 8.87173C18.0551 7.93702 18.9792 7.33337 20 7.33337V7.33337L19.7164 7.97964L13.8819 21.2733C13.7592 21.5528 13.4828 21.7334 13.1776 21.7334V21.7334Z"/><path fill="#00C2FF" d="M20 7.33337L19.7164 7.97964L20.1093 7.60816C20.2139 7.50927 20.1439 7.33337 20 7.33337V7.33337Z"/><path fill="#00C2FF" d="M11.9175 21.7334C11.9676 21.7334 12.013 21.7037 12.0331 21.6578V21.6578C12.0885 21.5317 11.9308 21.4207 11.8307 21.5153V21.5153C11.7477 21.5938 11.8032 21.7334 11.9175 21.7334V21.7334Z"/></svg>