<svg width="16" height="17" viewBox="0 0 16 17" fill="none" xmlns="http://www.w3.org/2000/svg">
<path d="M15 15H1C0.447715 15 0 15.4477 0 16C0 16.5523 0.447715 17 1 17H15C15.5523 17 16 16.5523 16 16C16 15.4477 15.5523 15 15 15Z" fill="black"/>
<path d="M0 14L0 16C0 16.5523 0.447715 17 1 17C1.55228 17 2 16.5523 2 16V14C2 13.4477 1.55228 13 1 13C0.447715 13 0 13.4477 0 14Z" fill="black"/>
<path d="M14 14V16C14 16.5523 14.4477 17 15 17C15.5523 17 16 16.5523 16 16V14C16 13.4477 15.5523 13 15 13C14.4477 13 14 13.4477 14 14Z" fill="black"/>
<path d="M7.99995 12C7.79263 12.0016 7.58995 11.9387 7.41995 11.82L3.41995 9C3.20436 8.84707 3.05809 8.615 3.01312 8.35453C2.96815 8.09406 3.02813 7.82638 3.17995 7.61C3.25574 7.50185 3.35219 7.40978 3.46376 7.33911C3.57532 7.26844 3.69977 7.22056 3.82994 7.19825C3.9601 7.17594 4.09339 7.17962 4.22212 7.2091C4.35085 7.23858 4.47247 7.29327 4.57995 7.37L7.99995 9.76L11.4 7.2C11.6121 7.04087 11.8788 6.97255 12.1414 7.01005C12.4039 7.04756 12.6408 7.18783 12.7999 7.4C12.9591 7.61218 13.0274 7.87887 12.9899 8.14143C12.9524 8.40398 12.8121 8.64087 12.6 8.8L8.59995 11.8C8.42686 11.9298 8.21632 12 7.99995 12V12Z" fill="black"/>
<path d="M8 10C7.73478 10 7.48043 9.89464 7.29289 9.70711C7.10536 9.51957 7 9.26522 7 9V1C7 0.734784 7.10536 0.48043 7.29289 0.292893C7.48043 0.105357 7.73478 0 8 0C8.26522 0 8.51957 0.105357 8.70711 0.292893C8.89464 0.48043 9 0.734784 9 1V9C9 9.26522 8.89464 9.51957 8.70711 9.70711C8.51957 9.89464 8.26522 10 8 10Z" fill="black"/>
</svg>
