<svg xmlns="http://www.w3.org/2000/svg" xmlns:xlink="http://www.w3.org/1999/xlink" width="177" height="160" viewBox="0 0 177 160"><defs><style>.a{clip-path:url(#f);}.b{fill:none;}.c,.d{stroke:#001cb7;}.c{fill:url(#a);}.d{fill:url(#b);}.e{filter:url(#c);}</style><linearGradient id="a" x1="0.5" x2="0.5" y2="0.128" gradientUnits="objectBoundingBox"><stop offset="0" stop-color="#00ffe2"/><stop offset="1" stop-color="#8190ff"/></linearGradient><linearGradient id="b" x1="0.5" x2="-0.085" y2="1.214" gradientUnits="objectBoundingBox"><stop offset="0" stop-color="#447bff"/><stop offset="1" stop-color="#222680"/></linearGradient><filter id="c" x="-7.183" y="19.692" width="191.683" height="143.436" filterUnits="userSpaceOnUse"><feOffset dy="-3" input="SourceAlpha"/><feGaussianBlur stdDeviation="3" result="d"/><feFlood flood-opacity="0.161"/><feComposite operator="in" in2="d"/><feComposite in="SourceGraphic"/></filter><clipPath id="f"><rect width="177" height="160"/></clipPath></defs><g id="e" class="a"><g transform="translate(0.317 -0.063)"><path class="b" d="M0,0H176.683V151.69H0Z"/><path class="c" d="M71.073,4h-51.8C9.771,4,2.086,12.083,2.086,21.961L2,129.729c0,9.879,7.771,17.961,17.268,17.961H157.414c9.5,0,17.268-8.083,17.268-17.961V39.923c0-9.879-7.771-17.961-17.268-17.961H88.341Z"/></g><g transform="translate(0.317 8.938)"><path class="b" d="M0,0H176.683V151.69H0Z"/><g class="e" transform="matrix(1, 0, 0, 1, -0.32, -8.94)"><path class="d" d="M63.419,21.878H19.268c-4.4,0-9.126,1.37-12.448,0-3.238-1.338-4.734-5.141-4.734,0L2,126.317a17.389,17.389,0,0,0,17.268,17.406H157.414a17.389,17.389,0,0,0,17.268-17.406V39.284a17.389,17.389,0,0,0-17.268-17.406h-94Z" transform="translate(0.32 12.9)"/></g></g></g></svg>