<svg xmlns="http://www.w3.org/2000/svg" xmlns:xlink="http://www.w3.org/1999/xlink" width="178" height="150" viewBox="0 0 178 150"><defs><style>.a{clip-path:url(#f);}.b{fill:none;}.c{stroke:#060101;fill:url(#a);}.d{fill:url(#b);}.e{filter:url(#c);}</style><linearGradient id="a" x1="0.5" x2="0.489" y2="0.088" gradientUnits="objectBoundingBox"><stop offset="0" stop-color="#060101"/><stop offset="1" stop-color="#585555"/></linearGradient><radialGradient id="b" cx="0.029" cy="1.097" r="1.42" gradientTransform="matrix(0.576, -0.817, 0.368, 0.259, -0.391, 0.836)" gradientUnits="objectBoundingBox"><stop offset="0" stop-color="#707070"/><stop offset="1" stop-color="#383838"/></radialGradient><filter id="c" x="-6.683" y="11.17" width="190.683" height="142.458" filterUnits="userSpaceOnUse"><feOffset dy="-3" input="SourceAlpha"/><feGaussianBlur stdDeviation="3" result="d"/><feFlood flood-opacity="0.161"/><feComposite operator="in" in2="d"/><feComposite in="SourceGraphic"/></filter><clipPath id="f"><rect width="178" height="150"/></clipPath></defs><g id="e" class="a"><g transform="translate(0.317 -0.063)"><path class="b" d="M0,0H176.683V151.69H0Z"/><path class="c" d="M71.073,4h-51.8C9.771,4,2.086,12.083,2.086,21.961L2,129.729c0,9.879,7.771,17.961,17.268,17.961H157.414c9.5,0,17.268-8.083,17.268-17.961V39.923c0-9.879-7.771-17.961-17.268-17.961H88.341Z"/></g><g transform="translate(111.317 123.938)"><path class="b" d="M0,0H176.683V151.69H0Z"/></g><g class="e" transform="matrix(1, 0, 0, 1, 0, 0)"><path class="d" d="M63.419,21.878H19.268c-4.4,0-9.126,1.37-12.448,0-3.238-1.338-4.734-5.141-4.734,0L2,126.317a17.389,17.389,0,0,0,17.268,17.406H157.414a17.389,17.389,0,0,0,17.268-17.406V39.284a17.389,17.389,0,0,0-17.268-17.406h-94Z" transform="translate(0.32 3.9)"/></g></g></svg>