<svg xmlns="http://www.w3.org/2000/svg" xmlns:xlink="http://www.w3.org/1999/xlink" width="169" height="160" viewBox="0 0 169 160"><defs><style>.a{clip-path:url(#af);}.b{fill:#fff;}.c,.d,.e,.f{fill:none;}.e,.f{stroke:#060101;}.e{stroke-width:3px;}.f{stroke-width:4px;}.g,.h{stroke:none;}.h{fill:#060101;}.i{filter:url(#ac);}.j{filter:url(#aa);}.k{filter:url(#y);}.l{filter:url(#w);}.m{filter:url(#u);}.n{filter:url(#s);}.o{filter:url(#q);}.p{filter:url(#o);}.q{filter:url(#m);}.r{filter:url(#k);}.s{filter:url(#i);}.t{filter:url(#g);}.u{filter:url(#e);}.v{filter:url(#c);}.w{filter:url(#a);}</style><filter id="a" x="-9" y="-5" width="187" height="178" filterUnits="userSpaceOnUse"><feOffset dy="4" input="SourceAlpha"/><feGaussianBlur stdDeviation="3" result="b"/><feFlood flood-opacity="0.161"/><feComposite operator="in" in2="b"/><feComposite in="SourceGraphic"/></filter><filter id="c" x="74" y="7.5" width="21" height="31" filterUnits="userSpaceOnUse"><feOffset dy="5" input="SourceAlpha"/><feGaussianBlur stdDeviation="3" result="d"/><feFlood flood-opacity="0.502"/><feComposite operator="in" in2="d"/><feComposite in="SourceGraphic"/></filter><filter id="e" x="47.444" y="53.801" width="57.111" height="44.397" filterUnits="userSpaceOnUse"><feOffset dy="3" input="SourceAlpha"/><feGaussianBlur stdDeviation="3" result="f"/><feFlood flood-opacity="0.502"/><feComposite operator="in" in2="f"/><feComposite in="SourceGraphic"/></filter><filter id="g" x="72.177" y="32" width="71.646" height="65.999" filterUnits="userSpaceOnUse"><feOffset dy="3" input="SourceAlpha"/><feGaussianBlur stdDeviation="3" result="h"/><feFlood flood-opacity="0.502"/><feComposite operator="in" in2="h"/><feComposite in="SourceGraphic"/></filter><filter id="i" x="5.5" y="73" width="31" height="21" filterUnits="userSpaceOnUse"><feOffset dy="3" input="SourceAlpha"/><feGaussianBlur stdDeviation="3" result="j"/><feFlood flood-opacity="0.502"/><feComposite operator="in" in2="j"/><feComposite in="SourceGraphic"/></filter><filter id="k" x="133.5" y="73" width="31" height="21" filterUnits="userSpaceOnUse"><feOffset dy="3" input="SourceAlpha"/><feGaussianBlur stdDeviation="3" result="l"/><feFlood flood-opacity="0.502"/><feComposite operator="in" in2="l"/><feComposite in="SourceGraphic"/></filter><filter id="m" x="74" y="129.5" width="21" height="31" filterUnits="userSpaceOnUse"><feOffset dy="3" input="SourceAlpha"/><feGaussianBlur stdDeviation="3" result="n"/><feFlood flood-opacity="0.502"/><feComposite operator="in" in2="n"/><feComposite in="SourceGraphic"/></filter><filter id="o" x="112.557" y="21.673" width="29.887" height="28.654" filterUnits="userSpaceOnUse"><feOffset dy="3" input="SourceAlpha"/><feGaussianBlur stdDeviation="3" result="p"/><feFlood flood-opacity="0.502"/><feComposite operator="in" in2="p"/><feComposite in="SourceGraphic"/></filter><filter id="q" x="26.557" y="21.673" width="29.887" height="28.654" filterUnits="userSpaceOnUse"><feOffset dy="3" input="SourceAlpha"/><feGaussianBlur stdDeviation="3" result="r"/><feFlood flood-opacity="0.502"/><feComposite operator="in" in2="r"/><feComposite in="SourceGraphic"/></filter><filter id="s" x="26.557" y="115.672" width="29.887" height="28.655" filterUnits="userSpaceOnUse"><feOffset dy="3" input="SourceAlpha"/><feGaussianBlur stdDeviation="3" result="t"/><feFlood flood-opacity="0.502"/><feComposite operator="in" in2="t"/><feComposite in="SourceGraphic"/></filter><filter id="u" x="109.557" y="115.672" width="29.887" height="28.655" filterUnits="userSpaceOnUse"><feOffset dy="3" input="SourceAlpha"/><feGaussianBlur stdDeviation="3" result="v"/><feFlood flood-opacity="0.502"/><feComposite operator="in" in2="v"/><feComposite in="SourceGraphic"/></filter><filter id="w" x="129.975" y="45.894" width="31.05" height="26.213" filterUnits="userSpaceOnUse"><feOffset dy="3" input="SourceAlpha"/><feGaussianBlur stdDeviation="3" result="x"/><feFlood flood-opacity="0.502"/><feComposite operator="in" in2="x"/><feComposite in="SourceGraphic"/></filter><filter id="y" x="9.975" y="45.894" width="31.05" height="26.213" filterUnits="userSpaceOnUse"><feOffset dy="3" input="SourceAlpha"/><feGaussianBlur stdDeviation="3" result="z"/><feFlood flood-opacity="0.502"/><feComposite operator="in" in2="z"/><feComposite in="SourceGraphic"/></filter><filter id="aa" x="9.975" y="94.894" width="31.05" height="26.213" filterUnits="userSpaceOnUse"><feOffset dy="3" input="SourceAlpha"/><feGaussianBlur stdDeviation="3" result="ab"/><feFlood flood-opacity="0.502"/><feComposite operator="in" in2="ab"/><feComposite in="SourceGraphic"/></filter><filter id="ac" x="129.975" y="94.894" width="31.05" height="26.213" filterUnits="userSpaceOnUse"><feOffset dy="3" input="SourceAlpha"/><feGaussianBlur stdDeviation="3" result="ad"/><feFlood flood-opacity="0.502"/><feComposite operator="in" in2="ad"/><feComposite in="SourceGraphic"/></filter><clipPath id="af"><rect width="169" height="160"/></clipPath></defs><g id="ae" class="a"><ellipse class="b" cx="79" cy="76.5" rx="79" ry="76.5" transform="translate(6 4)"/><path class="c" d="M0,0H177V160H0Z"/><g class="w" transform="matrix(1, 0, 0, 1, 0, 0)"><g class="d"><path class="g" d="M84.5,0C131.168,0,169,35.817,169,80s-37.832,80-84.5,80S0,124.183,0,80,37.832,0,84.5,0Z"/><path class="h" d="M 84.5 10 C 43.42056274414062 10 10 41.40187835693359 10 80 C 10 118.5981292724609 43.42056274414062 150 84.5 150 C 125.5794372558594 150 159 118.5981292724609 159 80 C 159 41.40187835693359 125.5794372558594 10 84.5 10 M 84.5 0 C 131.1680603027344 0 169 35.81721496582031 169 80 C 169 124.1827850341797 131.1680603027344 160 84.5 160 C 37.83193969726562 160 0 124.1827850341797 0 80 C 0 35.81721496582031 37.83193969726562 0 84.5 0 Z"/></g></g><g class="v" transform="matrix(1, 0, 0, 1, 0, 0)"><line class="e" y2="13" transform="translate(84.5 11.5)"/></g><g class="u" transform="matrix(1, 0, 0, 1, 0, 0)"><line class="f" x2="37" y2="23" transform="translate(57.5 61.5)"/></g><g class="t" transform="matrix(1, 0, 0, 1, 0, 0)"><line class="f" y1="45" x2="51" transform="translate(82.5 39.5)"/></g><g class="s" transform="matrix(1, 0, 0, 1, 0, 0)"><path class="e" d="M13,0H0" transform="translate(14.5 80.5)"/></g><g class="r" transform="matrix(1, 0, 0, 1, 0, 0)"><line class="e" x2="13" transform="translate(142.5 80.5)"/></g><g class="q" transform="matrix(1, 0, 0, 1, 0, 0)"><line class="e" y1="13" transform="translate(84.5 135.5)"/></g><g class="p" transform="matrix(1, 0, 0, 1, 0, 0)"><line class="e" y2="13" transform="translate(132.48 28.82) rotate(50)"/></g><g class="o" transform="matrix(1, 0, 0, 1, 0, 0)"><line class="e" y1="13" transform="translate(46.48 37.18) rotate(130)"/></g><g class="n" transform="matrix(1, 0, 0, 1, 0, 0)"><line class="e" y2="13" transform="translate(36.52 131.18) rotate(-130)"/></g><g class="m" transform="matrix(1, 0, 0, 1, 0, 0)"><line class="e" y1="13" transform="translate(119.52 122.82) rotate(-50)"/></g><g class="l" transform="matrix(1, 0, 0, 1, 0, 0)"><line class="e" y2="13" transform="translate(151.39 53.25) rotate(65)"/></g><g class="k" transform="matrix(1, 0, 0, 1, 0, 0)"><line class="e" y1="13" transform="translate(31.39 58.75) rotate(115)"/></g><g class="j" transform="matrix(1, 0, 0, 1, 0, 0)"><line class="e" y2="13" transform="translate(19.61 107.75) rotate(-115)"/></g><g class="i" transform="matrix(1, 0, 0, 1, 0, 0)"><line class="e" y1="13" transform="translate(139.61 102.25) rotate(-65)"/></g><circle class="b" cx="1" cy="1" r="1" transform="translate(86.5 79)"/></g></svg>