<svg xmlns="http://www.w3.org/2000/svg" width="24" height="24" fill="none" viewBox="0 0 24 24"><path fill="#000" d="M17.6498 6.35C16.9097 5.60485 16.0294 5.01356 15.0597 4.61023C14.09 4.2069 13.05 3.99951 11.9998 4C7.57977 4 4.00977 7.58 4.00977 12C4.00977 16.42 7.57977 20 11.9998 20C15.7298 20 18.8398 17.45 19.7298 14H17.6498C17.2378 15.1695 16.4731 16.1824 15.4611 16.8988C14.4491 17.6153 13.2397 18 11.9998 18C8.68977 18 5.99977 15.31 5.99977 12C5.99977 8.69 8.68977 6 11.9998 6C13.6598 6 15.1398 6.69 16.2198 7.78L12.9998 11H19.9998V4L17.6498 6.35Z"/></svg>