<svg xmlns="http://www.w3.org/2000/svg" width="24" height="24" fill="none" viewBox="0 0 24 24"><g clip-path="url(#clip0)"><path fill="#000" d="M15 12C17.2091 12 19 10.2091 19 8C19 5.79086 17.2091 4 15 4C12.7909 4 11 5.79086 11 8C11 10.2091 12.7909 12 15 12Z"/><path fill="#000" d="M23 20V18C23 15.7 18.9 14.3 16.1 14.1L22.1 20H23ZM11.4 14.5C9.2 15.1 7 16.3 7 18V20H16.9L20.9 24L22.2 22.7L1.2 1.79999L0 3.09999L4 7.09999V9.99999H1V12H4V15H6V12H8.9L11.4 14.5ZM6 9.99999V9.09999L6.9 9.99999H6Z"/></g><defs><clipPath id="clip0"><rect width="24" height="24" fill="#fff"/></clipPath></defs></svg>