<svg xmlns="http://www.w3.org/2000/svg" width="20" height="21" fill="none" viewBox="0 0 20 21"><path fill="#000" d="M5.72 15.456L7.481 14.948L18.084 4.218C18.1676 4.1323 18.2142 4.01713 18.2136 3.89738C18.2131 3.77764 18.1654 3.66292 18.081 3.578L17.446 2.936C17.405 2.89384 17.3559 2.86027 17.3018 2.83726C17.2477 2.81424 17.1895 2.80225 17.1306 2.80197C17.0718 2.80169 17.0135 2.81313 16.9591 2.83563C16.9048 2.85813 16.8554 2.89123 16.814 2.933L6.239 13.635L5.719 15.455L5.72 15.456ZM18.703 1.664L19.338 2.307C20.214 3.194 20.222 4.625 19.354 5.503L8.428 16.561L4.664 17.645C4.4342 17.7093 4.18826 17.6798 3.98016 17.5631C3.77206 17.4463 3.6188 17.2517 3.554 17.022C3.50578 16.8569 3.50509 16.6815 3.552 16.516L4.647 12.676L15.544 1.647C15.7512 1.43836 15.9979 1.27306 16.2696 1.16075C16.5414 1.04844 16.8328 0.991367 17.1269 0.992857C17.4209 0.994346 17.7117 1.05437 17.9823 1.16943C18.2529 1.28448 18.4979 1.45227 18.703 1.663V1.664ZM7.184 2.817C7.68 2.817 8.082 3.224 8.082 3.726C8.08279 3.84467 8.06018 3.96233 8.01547 4.07225C7.97076 4.18218 7.90481 4.28221 7.82141 4.36663C7.73801 4.45105 7.63879 4.51821 7.52942 4.56426C7.42004 4.61031 7.30267 4.63434 7.184 4.635H3.592C2.6 4.635 1.796 5.449 1.796 6.452V17.358C1.796 18.362 2.6 19.176 3.592 19.176H14.368C15.36 19.176 16.165 18.362 16.165 17.358V13.723C16.165 13.221 16.567 12.814 17.063 12.814C17.559 12.814 17.961 13.221 17.961 13.724V17.358C17.961 19.366 16.352 20.994 14.368 20.994H3.592C1.608 20.994 0 19.366 0 17.358V6.452C0 4.445 1.608 2.817 3.592 2.817H7.184V2.817Z"/></svg>