<svg xmlns="http://www.w3.org/2000/svg" xmlns:xlink="http://www.w3.org/1999/xlink" width="152" height="150" viewBox="0 0 152 150"><defs><style>.a{clip-path:url(#c);}.b{fill:none;}.c{fill:url(#a);}</style><linearGradient id="a" y1="0.371" x2="0.878" y2="0.925" gradientUnits="objectBoundingBox"><stop offset="0" stop-color="#707070"/><stop offset="1" stop-color="#f32742"/></linearGradient><clipPath id="c"><rect width="152" height="150"/></clipPath></defs><g id="b" class="a"><path class="b" d="M0,0H177V160H0Z"/><path class="c" d="M103.273,69.286c11.318,0,20.386-14.357,20.386-32.143S114.591,5,103.273,5,82.818,19.357,82.818,37.143,91.955,69.286,103.273,69.286Zm-54.545,0c11.318,0,20.386-14.357,20.386-32.143S60.045,5,48.727,5,28.273,19.357,28.273,37.143,37.409,69.286,48.727,69.286Zm0,21.429C32.841,90.714,1,103.25,1,128.214V155H96.455V128.214C96.455,103.25,64.614,90.714,48.727,90.714Zm54.545,0a51,51,0,0,0-6.614.536c7.909,9,13.432,21.107,13.432,36.964V155H151V128.214C151,103.25,119.159,90.714,103.273,90.714Z" transform="translate(0 -5)"/></g></svg>