<svg xmlns="http://www.w3.org/2000/svg" xmlns:xlink="http://www.w3.org/1999/xlink" width="110" height="70" viewBox="0 0 110 70"><defs><style>.a{clip-path:url(#c);}.b{fill:none;}.c{fill:url(#a);}</style><radialGradient id="a" cx="0.677" cy="0.384" r="0.739" gradientTransform="matrix(-0.964, 0.266, -0.286, -1.034, 1.44, 0.601)" gradientUnits="objectBoundingBox"><stop offset="0" stop-color="#707070"/><stop offset="1" stop-color="#383838"/></radialGradient><clipPath id="c"><rect width="110" height="70"/></clipPath></defs><g id="b" class="a"><path class="b" d="M0,0H118.21V65H0Z"/><path class="c" d="M74.78,32.857c8.165,0,14.707-6.221,14.707-13.929S82.944,5,74.78,5,60.024,11.221,60.024,18.929,66.615,32.857,74.78,32.857Zm-39.349,0c8.165,0,14.707-6.221,14.707-13.929S43.6,5,35.43,5,20.675,11.221,20.675,18.929,27.266,32.857,35.43,32.857Zm0,9.286C23.97,42.143,1,47.575,1,58.393V70H69.861V58.393C69.861,47.575,46.891,42.143,35.43,42.143Zm39.349,0c-1.426,0-3.05.093-4.771.232,5.706,3.9,9.69,9.146,9.69,16.018V70H109.21V58.393C109.21,47.575,86.24,42.143,74.78,42.143Z" transform="translate(0 0)"/></g></svg>