<svg xmlns="http://www.w3.org/2000/svg" xmlns:xlink="http://www.w3.org/1999/xlink" width="110" height="70" viewBox="0 0 110 70"><defs><style>.a{clip-path:url(#c);}.b{fill:none;}.c{fill:url(#a);}</style><linearGradient id="a" y1="0.371" x2="0.878" y2="0.925" gradientUnits="objectBoundingBox"><stop offset="0" stop-color="#707070"/><stop offset="1" stop-color="#383838"/></linearGradient><clipPath id="c"><rect width="110" height="70"/></clipPath></defs><g id="b" class="a"><path class="b" d="M0,0H118.21V65H0Z"/><path class="b" d="M0,0H110V79.717H0Z"/><path class="c" d="M75.193,34.879A14.827,14.827,0,0,0,89.982,19.939,14.814,14.814,0,1,0,75.193,34.879Zm-39.57,0A14.827,14.827,0,0,0,50.413,19.939,14.814,14.814,0,1,0,35.623,34.879Zm0,9.96C24.1,44.838,1,50.664,1,62.267V74.717H70.247V62.267C70.247,50.664,47.148,44.838,35.623,44.838Zm39.57,0c-1.434,0-3.067.1-4.8.249,5.738,4.183,9.744,9.81,9.744,17.18V74.717h29.677V62.267C109.816,50.664,86.718,44.838,75.193,44.838Z" transform="translate(0 -5)"/></g></svg>